<svg width="32" height="32" viewBox="0 0 32 32" fill="none" xmlns="http://www.w3.org/2000/svg">
  <rect y="-0.00210571" width="32" height="32" rx="8" fill="#DE931A"/>
  <path d="M23.7221 24.3214C20.8796 24.3214 18.7861 22.1511 18.7861 19.0013C18.7861 15.8515 20.8796 13.6812 23.7221 13.6812C26.5646 13.6812 28.658 15.8515 28.658 19.0013C28.658 22.1511 26.5646 24.3214 23.7221 24.3214ZM21.6478 19.0013C21.6478 20.8259 22.4545 21.959 23.7221 21.959C24.9897 21.959 25.7963 20.8259 25.7963 19.0013C25.7963 17.1767 24.9897 16.0436 23.7221 16.0436C22.4545 16.0436 21.6478 17.1767 21.6478 19.0013Z" fill="white"/>
  <path d="M14.79 21.6332C14.79 21.3571 15.0139 21.1332 15.29 21.1332H17.2862C17.5623 21.1332 17.7862 21.3571 17.7862 21.6332V23.5909C17.7862 23.8671 17.5623 24.0909 17.2862 24.0909H15.29C15.0139 24.0909 14.79 23.8671 14.79 23.5909V21.6332Z" fill="white"/>
  <path d="M8.56596 24.3982C5.22411 24.3982 3.34192 21.5749 3.34192 17.292C3.34192 13.0091 5.22411 10.1474 8.56596 10.1474C11.9078 10.1474 13.79 13.0091 13.79 17.292C13.79 21.5749 11.9078 24.3982 8.56596 24.3982ZM6.29965 17.292C6.29965 20.3074 7.04869 21.8822 8.56596 21.8822C10.0832 21.8822 10.8323 20.3074 10.8323 17.292C10.8323 14.2574 10.0832 12.6633 8.56596 12.6633C7.04869 12.6633 6.29965 14.2574 6.29965 17.292Z" fill="white"/>
  </svg>
  